<svg xmlns="http://www.w3.org/2000/svg" width="1366" height="767.666" viewBox="0 0 1366 767.666"><defs><style>.a{fill:#055a97;}.b{fill:#064681;}.c{fill:#027dc7;}.d{fill:#0375bb;}.e{fill:#0086d4;}</style></defs><g transform="translate(0 0.51)"><g transform="translate(0 230.358)"><path class="a" d="M91.177,687.68S144.8,609.294,123.16,558.494s-54.037-74.611-56.588-124.16S-3,324.033-3,324.033l.011,363.7Z" transform="translate(3 -324.033)"/><path class="b" d="M0,602.041s44.655,7.291,75.639,56.5-2.734,153.1,58.324,197.756,179.53,32.807,179.53,32.807S402.1,886.3,506.9,940.977L0,941.052Z" transform="translate(0 -404.254)"/></g><g transform="translate(844.698 389.245)"><path class="a" d="M1574.889,769.261s-116.259-13.751-165.012,67.505-160.012,108.758-160.012,108.758-51.031,3.067-72.283,45.57l189.889-.011s58.657-74.311,132.413-86.812S1574.889,769.261,1574.889,769.261Z" transform="translate(-1177.582 -613.273)"/><path class="b" d="M1410.58,927.164s31.652-113.719,164.749-124.282c57.042-21.127,76.056-128.872,76.056-128.872s4.225-122.534,122.534-124.647c0,4.225.023,377.842.023,377.842Z" transform="translate(-1252.64 -549.363)"/></g><g transform="translate(521.418 515.392)"><path class="c" d="M2701.858,686.041c18.756-.507,31.494,6.616,50.511,38.22S2869.8,737.086,2869.8,737.086s-3.761-9.665-19.475-14.734-31.674-4.559-41.812-13.527-11.308-36.263-37.433-35.873-45.115-12.58-72.226-10.288S2683.1,686.548,2701.858,686.041Z" transform="translate(-2682.751 -662.391)"/><path class="d" d="M2736.507,705.906c6.354-7.59,28.046,2.162,67.639,27.357,38.879,31.631,56.854,20.3,73.171,15.521,2.287-.354,29.847.457,14.031,22.2s-61.967,13.629-100.959-2.692S2755.165,729.84,2736.507,705.906Z" transform="translate(-2708.853 -682.3)"/></g><g transform="translate(390.79 -0.51)"><path class="e" d="M853.314,0s91.819,49.858,136.224,111.445c14.212,36.176-19.474,47.35-8.69,100.281s54.938,107.333,115.6,113.95,12.916,72.664,91.064,96.362c35.379,1.985,122.478,149.01,195.076,4.774,15.99-36.29,16.355-65.421,74.488-93.27s0-101.732,0-101.732-43.423-68.228,73.6-130.506C1670.852,36.317,1671.267,0,1671.267,0Z" transform="translate(-822.907 0.363)"/><path class="c" d="M1285.574,52.49c3.63,34.852,14.072,53.1,44.648,65.164,18.844,7.7,51.276-12.828,94.021,17.2s-19.8,143.094,58.145,202.96c32.457,8.348,107.493-122.427,66.627-173.828-59.953-46.388,13.481-83.363-47.5-111.147Z" transform="translate(-1285.574 -52.49)"/></g></g></svg>