<svg xmlns="http://www.w3.org/2000/svg" width="360.391" height="640.162" viewBox="0 0 360.391 640.162"><defs><style>.a{fill:#055a97;}.b{fill:#064681;}.c{fill:#0086d4;}.d{fill:#027dc7;}</style></defs><g transform="translate(0 0.507)"><g transform="translate(0 467.244)"><path class="a" d="M27.248,440.831s17.223-25.176,10.272-41.493S20.165,375.374,19.345,359.46-3,324.033-3,324.033l0,116.816Z" transform="translate(3 -324.033)"/><path class="b" d="M0,602.041s14.342,2.342,24.294,18.147-.878,49.174,18.733,63.516,57.662,10.537,57.662,10.537,28.459-.9,62.12,16.66L0,710.925Z" transform="translate(0 -538.515)"/></g><g transform="translate(187.498 514.606)"><path class="a" d="M1309.053,768.673s-38.471-4.55-54.6,22.338S1201.5,827,1201.5,827s-16.887,1.015-23.919,15.079l62.836,0s19.41-24.59,43.816-28.727S1309.053,768.673,1309.053,768.673Z" transform="translate(-1177.581 -717.055)"/><path class="b" d="M1410.58,674.379s10.474-37.63,54.516-41.126c18.876-6.991,25.167-42.645,25.167-42.645s1.4-40.547,40.548-41.246c0,1.4.008,125.03.008,125.03Z" transform="translate(-1358.316 -549.363)"/></g><g transform="translate(71.797 -0.51)"><path class="c" d="M853.314.043s45.882,34.1,68.071,76.223c7.1,24.743-9.731,32.385-4.342,68.587s27.453,73.411,57.763,77.936,6.454,49.7,45.5,65.907c17.678,1.358,61.2,101.915,97.48,3.265,4.49-13.949,7.447-52.635,8.712-113.148-.685-53.823.935-107.085-.216-179Z" transform="translate(-838.119 0.208)"/><path class="d" d="M1285.574,52.49c1.814,23.837,7.032,36.32,22.311,44.569,9.416,5.268,25.623-8.774,46.982,11.766s-9.9,97.869,29.055,138.815c16.219,5.709,53.714-83.734,33.294-118.89-29.959-31.727,6.737-57.016-23.738-76.019Z" transform="translate(-1285.575 -52.487)"/></g></g></svg>