<svg xmlns="http://www.w3.org/2000/svg" width="1921" height="1080" viewBox="0 0 1921 1080"><defs><style>.a{fill:#055a97;}.b{fill:#064681;}.c{fill:#0086d4;}.d{fill:#027dc7;}</style></defs><g transform="translate(0 0.51)"><g transform="translate(0 323.158)"><path class="a" d="M129.375,835.171s75.372-110.179,44.954-181.584S98.375,548.715,94.789,479.071-3,324.033-3,324.033l.016,511.219Z" transform="translate(3 -324.077)"/><path class="b" d="M0,602.041s62.766,10.248,106.318,79.418-3.843,215.2,81.98,277.964,252.345,46.114,252.345,46.114,124.251-3.843,271.559,73.014c0-1.281-712.2,0-712.2,0Z" transform="translate(0 -324.077)"/></g><g transform="translate(1187.95 548.444)"><path class="a" d="M1736.032,769.618s-163.412-19.328-231.94,94.884-224.911,152.869-224.911,152.869-72.042,3.514-101.913,63.256c-3.514,1.757,267.082,0,267.082,0s82.585-103.67,186.255-121.241S1736.032,769.618,1736.032,769.618Z" transform="translate(-1177.235 -550.363)"/><path class="b" d="M1410.526,1080s44.543-159.446,231.623-174.294c80.177-29.7,106.9-181.141,106.9-181.141s5.939-172.233,172.233-175.2V1080Z" transform="translate(-1188.235 -549.363)"/></g><g transform="translate(549.29 -0.51)"><path class="c" d="M853.314,0s129.06,70.08,191.475,156.646c19.976,50.849-27.372,66.554-12.215,140.954s77.221,150.867,162.479,160.167,29.711,101.584,128,135.445,184.83,226.557,265.152,0c3.547-8.1.445-132.449,113.744-124.389s-27.093-154.483-27.093-154.483-66.5-80.6,130.54-171.947S2003.019,0,2003.019,0Z" transform="translate(-810.574 0.51)"/><path class="d" d="M1285.574,52.49c5.1,48.987,19.779,74.642,62.756,91.594,26.487,10.827,72.074-18.031,132.155,24.18s-27.835,201.131,81.728,285.278c45.621,11.733,151.091-172.082,93.651-244.331-84.27-65.2,18.949-117.174-66.771-156.227Z" transform="translate(-1285.574 -52.49)"/></g></g></svg>