<svg xmlns="http://www.w3.org/2000/svg" width="1920.033" height="958.142" viewBox="0 0 1920.033 958.142"><defs><style>.a{fill:#055a97;}.b{fill:#064681;}.c{fill:#0086d4;}.d{fill:#027dc7;}.e{fill:#0375bb;}</style></defs><g transform="translate(0 0.51)"><g transform="translate(0 203.115)"><path class="a" d="M129.375,835.171s75.372-110.179,44.954-181.584S98.375,548.715,94.789,479.071-3,324.033-3,324.033l.016,511.219Z" transform="translate(3 -324.033)"/><path class="b" d="M0,602.041s62.766,10.248,106.318,79.418-3.843,215.2,81.98,277.964,252.345,46.114,252.345,46.114,124.546-3.948,271.854,72.909l-712.5.1Z" transform="translate(0 -324.033)"/></g><g transform="translate(1186.95 426.444)"><path class="a" d="M1736.032,769.618s-163.412-19.328-231.94,94.884-224.911,152.869-224.911,152.869-71.729,4.311-101.6,64.053l266.906-.016s82.448-104.451,186.118-122.022S1736.032,769.618,1736.032,769.618Z" transform="translate(-1177.235 -550.363)"/><path class="b" d="M1410.58,1080.4s44.489-159.841,231.569-174.689c80.177-29.7,106.9-181.141,106.9-181.141s5.939-172.233,172.233-175.2c0,5.939.033,531.09.033,531.09Z" transform="translate(-1188.235 -549.363)"/></g><g transform="translate(548.29 -0.51)"><path class="c" d="M853.314,0s125.3,62.713,185.9,140.179c19.394,45.5-26.574,59.557-11.859,126.136s74.971,135.007,157.745,143.329,28.846,90.9,124.27,121.206,179.445,202.74,257.426,0c3.444-7.248.432-118.525,110.43-111.312s-26.3-138.243-26.3-138.243-64.564-72.127,126.737-153.871S1969.522,0,1969.522,0Z" transform="translate(-811.82 0.457)"/><path class="d" d="M1285.574,52.49c4.954,43.837,19.2,66.795,60.928,81.965,25.715,9.689,69.974-16.135,128.3,21.638s-27.024,179.987,79.347,255.288c44.292,10.5,146.689-153.991,90.922-218.645-81.814-58.349,18.4-104.856-64.825-139.8Z" transform="translate(-1285.574 -52.49)"/></g><g transform="translate(-28.728 -24.901)"><path class="d" d="M2709.608,695.633c26.363-.713,44.268,9.3,71,53.722s165.067,18.026,165.067,18.026-5.286-13.586-27.374-20.711-44.52-6.408-58.77-19.014-15.895-50.971-52.615-50.423-63.414-17.682-101.52-14.461S2683.246,696.345,2709.608,695.633Z" transform="translate(-1990)"/><path class="e" d="M2736.507,706.924c8.931-10.669,39.422,3.038,95.073,38.452,54.648,44.46,79.913,28.532,102.848,21.816,3.214-.5,41.953.643,19.723,31.209s-87.1,19.157-141.907-3.784S2762.732,740.566,2736.507,706.924Z" transform="translate(-2004.885 -11.354)"/></g></g></svg>