<svg xmlns="http://www.w3.org/2000/svg" width="1024" height="768.469" viewBox="0 0 1024 768.469"><defs><style>.a{fill:#055a97;}.b{fill:#064681;}.c{fill:#027dc7;}.d{fill:#0375bb;}.e{fill:#0086d4;}</style></defs><g transform="translate(0 0.51)"><g transform="translate(0 365.556)"><path class="a" d="M67.6,596.636s40.2-58.761,23.975-96.843-40.508-55.931-42.42-93.074S-3,324.033-3,324.033l.008,272.645Z" transform="translate(3 -324.033)"/><path class="b" d="M0,602.041s33.475,5.465,56.7,42.356-2.049,114.77,43.722,148.245,134.582,24.594,134.582,24.594,66.423-2.105,144.986,38.884L0,856.175Z" transform="translate(0 -453.773)"/></g><g transform="translate(633.214 484.663)"><path class="a" d="M1475.417,769.041s-87.151-10.308-123.7,50.6-119.951,81.529-119.951,81.529-38.255,2.3-54.186,34.161l142.348-.008s43.971-55.706,99.261-65.077S1475.417,769.041,1475.417,769.041Z" transform="translate(-1177.581 -652.107)"/><path class="b" d="M1410.58,832.575s23.727-85.247,123.5-93.166c42.761-15.837,57.014-96.607,57.014-96.607s3.167-91.856,91.856-93.439c0,3.167.018,283.243.018,283.243Z" transform="translate(-1292.182 -549.363)"/></g><g transform="translate(392.872 484.228)"><path class="c" d="M2697.074,680.12c14.06-.38,23.609,4.96,37.865,28.651s88.034,9.614,88.034,9.614-2.819-7.246-14.6-11.045-23.744-3.418-31.344-10.141-8.477-27.184-28.061-26.892-33.82-9.43-54.143-7.712S2683.015,680.5,2697.074,680.12Z" transform="translate(-2682.751 -662.391)"/><path class="d" d="M2736.507,705.277c4.763-5.69,21.025,1.62,50.7,20.508,29.146,23.712,42.62,15.217,54.852,11.635,1.714-.265,22.374.343,10.518,16.645s-46.453,10.217-75.682-2.018S2750.493,723.219,2736.507,705.277Z" transform="translate(-2715.777 -687.581)"/></g><g transform="translate(281.949 -0.51)"><path class="e" d="M853.314,0S925.828,46.839,960.9,104.7c11.224,33.986-15.379,44.482-6.863,94.209s43.387,100.834,91.291,107.05,10.2,68.264,71.918,90.527c27.94,1.865,96.727,139.987,154.061,4.485,12.628-34.093,12.917-61.46,58.826-87.622s0-95.572,0-95.572-34.294-64.1,58.123-122.6C1498.964,34.118,1499.292,0,1499.292,0Z" transform="translate(-829.3 0.341)"/><path class="c" d="M1285.574,52.49c2.867,32.741,11.113,49.888,35.261,61.218,14.882,7.237,40.5-12.051,74.253,16.161s-15.64,134.43,45.92,190.671c25.633,7.842,84.893-115.014,52.619-163.3-47.348-43.58,10.647-78.315-37.516-104.417Z" transform="translate(-1285.574 -52.49)"/></g></g></svg>