<svg xmlns="http://www.w3.org/2000/svg" width="1920.033" height="958.142" viewBox="0 0 1920.033 958.142"><defs><style>.a{fill:#055a97;}.b{fill:#064681;}.c{fill:#027dc7;}.d{fill:#0375bb;}.e{fill:#0086d4;}</style></defs><g transform="translate(0 0.51)"><g transform="translate(0 203.115)"><path class="a" d="M129.375,835.171s75.372-110.179,44.954-181.584S98.375,548.715,94.789,479.071-3,324.033-3,324.033l.016,511.219Z" transform="translate(3 -324.033)"/><path class="b" d="M0,602.041s62.766,10.248,106.318,79.418-3.843,215.2,81.98,277.964,252.345,46.114,252.345,46.114,124.546-3.948,271.854,72.909l-712.5.1Z" transform="translate(0 -324.033)"/></g><g transform="translate(1186.95 426.444)"><path class="a" d="M1736.032,769.618s-163.412-19.328-231.94,94.884-224.911,152.869-224.911,152.869-71.729,4.311-101.6,64.053l266.906-.016s82.448-104.451,186.118-122.022S1736.032,769.618,1736.032,769.618Z" transform="translate(-1177.235 -550.363)"/><path class="b" d="M1410.58,1080.4s44.489-159.841,231.569-174.689c80.177-29.7,106.9-181.141,106.9-181.141s5.939-172.233,172.233-175.2c0,5.939.033,531.09.033,531.09Z" transform="translate(-1188.235 -549.363)"/></g><g transform="translate(-28.728 -24.901)"><path class="c" d="M2709.608,695.633c26.363-.713,44.268,9.3,71,53.722s165.067,18.026,165.067,18.026-5.286-13.586-27.374-20.711-44.52-6.408-58.77-19.014-15.895-50.971-52.615-50.423-63.414-17.682-101.52-14.461S2683.246,696.345,2709.608,695.633Z" transform="translate(-1990)"/><path class="d" d="M2736.507,706.924c8.931-10.669,39.422,3.038,95.073,38.452,54.648,44.46,79.913,28.532,102.848,21.816,3.214-.5,41.953.643,19.723,31.209s-87.1,19.157-141.907-3.784S2762.732,740.566,2736.507,706.924Z" transform="translate(-2004.885 -11.354)"/></g><g transform="translate(549.29 -0.51)"><path class="e" d="M853.314,0s129.06,70.08,191.475,156.646c19.976,50.849-27.372,66.554-12.215,140.954s77.221,150.867,162.479,160.167,18.155,102.135,128,135.445c49.728,2.79,172.154,209.446,274.2,6.71,22.476-51.009,22.989-91.955,104.7-131.1s0-142.993,0-142.993-61.035-95.9,103.447-183.437C2002.436,51.047,2003.019,0,2003.019,0Z" transform="translate(-810.574 0.51)"/><path class="c" d="M1285.574,52.49c5.1,48.987,19.779,74.642,62.756,91.594,26.487,10.827,72.074-18.031,132.155,24.18s-27.835,201.131,81.728,285.278c45.621,11.733,151.091-172.082,93.651-244.331-84.27-65.2,18.949-117.174-66.771-156.227Z" transform="translate(-1285.574 -52.49)"/></g></g></svg>