<?xml version="1.0" encoding="utf-8"?>
<!-- Generator: Adobe Illustrator 23.0.6, SVG Export Plug-In . SVG Version: 6.00 Build 0)  -->
<svg version="1.1" xmlns="http://www.w3.org/2000/svg" xmlns:xlink="http://www.w3.org/1999/xlink" x="0px" y="0px"
	 viewBox="0 0 1945.4 704.4" style="enable-background:new 0 0 1945.4 704.4;" xml:space="preserve">
<style type="text/css">
	.st0{fill:url(#SVGID_1_);}
	.st1{opacity:5.000000e-02;fill:#FFFFFF;}
</style>
<g id="Layer_2">
	<linearGradient id="SVGID_1_" gradientUnits="userSpaceOnUse" x1="0" y1="362.093" x2="1945.42" y2="362.093">
		<stop  offset="0" style="stop-color:#0086D4"/>
		<stop  offset="0.25" style="stop-color:#027DC7"/>
		<stop  offset="0.5" style="stop-color:#0375BB"/>
		<stop  offset="0.75" style="stop-color:#055A97"/>
		<stop  offset="1" style="stop-color:#064681"/>
	</linearGradient>
	<path class="st0" d="M0,145c0,0,42.4-88.5,183.7-117c75.3-15.2,193.2-11.6,280,28.7C544.5,94.3,574.9,154.2,583,174
		c3.5,8.5,7.7,16.6,12.9,24.1c17.2,25.4,53.9,64.3,94.5,16.8c56.3-65.8,170.7-88.4,224-75.9c52.7,12.4,107.1,79.3,149.3,127.4
		c82.9,94.6,167.2,26.1,203.8-14.9c19.8-22.2,43.1-40.9,69-55.4c79-44.2,241.6-122.9,387.2-115.2c0,0,98.5,11.3,144.7,85.3
		c46.2,74.1,77,85.9,77,85.9l0,452.2H0V145z"/>
</g>
<g id="Layer_1">
	<path class="st1" d="M1750.6,232.3c87.6-44.1,14.6-94-30.1-87.5c-125.5,18.1-321.7,71.5-411,179.8
		c-145.1,175.9-339.2-2.3-384.5-48.6c-8.5-8.7-19.3-14.7-31.1-17.3c-36.3-7.9-117.4-10.3-232.8,74c-160.1,116.9-416.3,19.8-410-99
		c4.8-92.1,66.4-77.2,94.2-58.4c16.9,11.4,38.3,14.3,57.4,7.1c25.2-9.5,43.5-30.8-3.1-79C316.4,17.3,175.1,66.9,152,119.7
		c-22.5,51.6-41.8,179.8,106.7,314.8c128.1,116.5,347.9,59.2,405.8,41.3c15.3-4.8,31.1-7.5,47.1-8.3c50.9-2.3,157.5,5.2,293.7,81.9
		c179.6,101.2,442.2-49.2,477.2-70.2c2.2-1.3,103.3-55.7,244.2-79.4c1.9-0.3,3.8-0.7,5.7-1.1c39.2-7.6,128.6,18.2,179.3-46.5
		c33.8-68.6-118.3-66.2-145.2-77c-8.3-3.3-15.1-9.6-18.9-17.6C1742.7,247.1,1742.8,236.2,1750.6,232.3z"/>
	<path class="st1" d="M0,351.9c0,0,44.7,116.9,253,228c61.3,32.6,130.5,47.5,199.8,43.2c241.2-14.6,478.8,52.5,591.4,81.3H0V351.9z"
		/>
	<path class="st1" d="M1306.3,704.4c0,0,142.7-27.4,272-136.8s272-100,272-100s40.8,0,95.1,32v204.8H1306.3z"/>
</g>
</svg>
