<svg id="Layer_1" data-name="Layer 1" xmlns="http://www.w3.org/2000/svg" viewBox="0 0 1945.42 704.44"><defs><style>.cls-1{fill:#fff;opacity:0.05;}</style></defs><title>Bottom_background-5p</title><path class="cls-1" d="M1827.07,232.42c97-48.85,16.19-104.11-33.37-97-139,20.09-356.3,79.24-455.19,199.12C1177.78,529.42,962.84,332,912.64,280.76a68.74,68.74,0,0,0-34.46-19.13c-40.18-8.75-130-11.4-257.87,81.93C443,473,159.26,365.46,166.18,234c5.37-102,73.55-85.48,104.34-64.73,18.76,12.63,42.38,15.88,63.55,7.91,27.87-10.5,48.14-34.16-3.38-87.46-92.1-95.3-248.62-40.46-274.18,18.1C31.59,164.89,10.19,306.89,174.7,456.5c141.91,129,385.25,65.56,449.42,45.68A207.08,207.08,0,0,1,676.25,493c56.39-2.5,174.49,5.74,325.26,90.71,198.9,112.1,489.78-54.47,528.59-77.75,2.47-1.49,110.15-80.56,268.4-106.46,39.7-10.45,154.7,51.88,146.5-32.53-5.43-50.08-70.47-75.11-100.32-87a39,39,0,0,1-20.93-19.5C1818.31,248.88,1818.5,236.74,1827.07,232.42Z" transform="translate(0 -38)"/><path class="cls-1" d="M0,389.94s44.65,116.88,253,228a376,376,0,0,0,199.75,43.21C693.94,646.51,873.82,718,996,734c145,19-996,0-996,0Z" transform="translate(0 -38)"/></svg>