<svg id="Layer_1" data-name="Layer 1" xmlns="http://www.w3.org/2000/svg" viewBox="0 0 1920.42 1087.59"><defs><style>.cls-1{fill:#fff;opacity:0.05;}</style></defs><title>Top_1920-1080</title><path class="cls-1" d="M1802.07,442.42c97-48.85,16.19-104.11-33.37-97-139,20.09-356.3,79.24-455.19,199.12C1152.79,739.41,937.86,542,887.65,490.77a68.92,68.92,0,0,0-34.6-19.17c-40.25-8.72-130-11.27-257.74,82C418,683,134.26,575.46,141.18,444c5.38-102.15,73.72-85.44,104.46-64.65a69.39,69.39,0,0,0,62.72,8.09c28.23-10.36,49.29-34-2.67-87.72-92.1-95.3-248.62-40.46-274.18,18.1C6.59,374.89-14.81,516.89,149.7,666.5c152.69,138.85,422.79,54.81,460.82,42a68.18,68.18,0,0,1,11.71-2.82c32.08-4.83,168.34-16.74,354.28,88,198.9,112.1,489.78-54.47,528.59-77.75,2.47-1.49,110.15-80.56,268.4-106.46,39.7-10.45,154.7,51.88,146.5-32.53-5.43-50.08-70.46-75.11-100.32-87a39,39,0,0,1-20.92-19.48C1793.31,458.89,1793.49,446.74,1802.07,442.42Z" transform="translate(0 0.14)"/><path class="cls-1" d="M1920,.4s-39.94,148.42-163,140.87-324.92,26.44-464.71,132.23c0,0-34.06,16.1-81.31,68.24a151.85,151.85,0,0,1-168.83,39.06c-29.71-11.88-57.87-26.24-79.89-38.46a237.45,237.45,0,0,1-64.69-52.67c-26-30.22-79.27-53.27-134.77-74.46C662.41,176.89,621.93-.14,621.93-.14H931.74S928,139.11,984.29,194.28c41.46,40.6,111.8,83.81,128,30.38s29.88-149.51,73.41-156C1263.68,57.07,1271,.13,1271,.13h202.94s32.38,34,134.93,46.95S1790.19.13,1790.19.13Z" transform="translate(0 0.14)"/><path class="cls-1" d="M0,734.94s44.65,116.88,253,228a376,376,0,0,0,199.75,43.21C693.94,991.51,873.82,1063,996,1079c145,19-996,0-996,0Z" transform="translate(0 0.14)"/></svg>