<svg xmlns="http://www.w3.org/2000/svg" width="1192.445" height="702.37" viewBox="0 0 1192.445 702.37"><defs><style>.a{fill:#0086d4;}.b{fill:#027dc7;}</style></defs><g transform="translate(-549.574 0.51)"><path class="a" d="M853.314,0s129.06,70.08,191.475,156.646c19.976,50.849-27.372,66.554-12.215,140.954s77.221,150.867,162.479,160.167,29.711,101.584,128,135.445,184.83,226.557,265.152,0c3.547-8.1.445-132.449,113.744-124.389s-27.093-154.483-27.093-154.483-66.5-80.6,130.54-171.947S2003.019,0,2003.019,0Z" transform="translate(-261)"/><path class="b" d="M1285.574,52.49c5.1,48.987,19.779,74.642,62.756,91.594,26.487,10.827,72.074-18.031,132.155,24.18s-27.835,201.131,81.728,285.278c45.621,11.733,151.091-172.082,93.651-244.331-84.27-65.2,18.949-117.174-66.771-156.227Z" transform="translate(-736 -53)"/></g></svg>