<svg xmlns="http://www.w3.org/2000/svg" width="263.36" height="143.224" viewBox="0 0 263.36 143.224"><defs><style>.a{fill:#027dc7;}.b{fill:#0375bb;}</style></defs><g transform="translate(-692.752 -662.391)"><path class="a" d="M2709.608,695.633c26.363-.713,44.268,9.3,71,53.722s165.067,18.026,165.067,18.026-5.286-13.586-27.374-20.711-44.52-6.408-58.77-19.014-15.895-50.971-52.615-50.423-63.414-17.682-101.52-14.461S2683.246,696.345,2709.608,695.633Z" transform="translate(-1990)"/><path class="b" d="M2736.507,706.924c8.931-10.669,39.422,3.038,95.073,38.452,54.648,44.46,79.913,28.532,102.848,21.816,3.214-.5,41.953.643,19.723,31.209s-87.1,19.157-141.907-3.784S2762.732,740.566,2736.507,706.924Z" transform="translate(-2004.885 -11.354)"/></g></svg>