<svg xmlns="http://www.w3.org/2000/svg" viewBox="0 0 811.41 501.58"><defs><style>.cls-1{fill:#ffc5bb;}.cls-2{fill:#f59493;}.cls-3{fill:#e56c6c;stroke:#e56c6c;}.cls-10,.cls-3,.cls-5,.cls-8{stroke-linejoin:round;}.cls-3,.cls-8{stroke-width:10px;}.cls-4{fill:#c94141;}.cls-5{fill:#ad3232;stroke:#ad3232;}.cls-10,.cls-5{stroke-linecap:round;stroke-width:3px;}.cls-6{fill:#fff;}.cls-7{fill:#dd5252;}.cls-17,.cls-8{fill:#d2a5ff;}.cls-8{stroke:#d2a5ff;}.cls-9{fill:#8549d3;}.cls-10{fill:#5c31af;stroke:#5c31af;}.cls-11{fill:#b96bff;}.cls-12{fill:#619aff;}.cls-13{fill:#a1c7ff;}.cls-14{fill:#457bc9;}.cls-15{fill:#f7c1c1;}.cls-16{fill:#47d69f;}.cls-18{fill:#f59b46;}.cls-19{fill:#e87777;}.cls-20{fill:#f4dcd9;}.cls-21{fill:#ded0f4;}.cls-22{fill:#bfa8e2;}.cls-23{fill:#e9e2f2;}</style></defs><title>Question-mark_illustration_laptop</title><g id="Armen"><g id="Linkerarm"><path class="cls-1" d="M704.12,254.41c-4.21-4.81-8.46-3.3-8.46-3.3,5.55,2.9,5.87,5.64,5.87,5.64,2.58,5.55-3.72,5-3.72,5-8.37-9-7.08-3.33-7.08-3.33,15.75,10.78-9,6.53-9,6.53-20.55-.14-33.3,23.16-37.91,33.41a13.32,13.32,0,0,1-8,7.17c-26.49,8.66-53.53-7.35-53.53-7.35s-45.35-33-53.09-121.87c5.09-11.79,1.27-42.66,1.27-42.66,55.7-1,64.3,118.24,64.3,118.24,2.9,15.92,30.4,33.2,42.93,17.5s35.1-31.35,48.89-30.38a30.48,30.48,0,0,1,21.27,11.32C709.11,254.34,704.12,254.41,704.12,254.41Z" transform="translate(-38.41 -8.12)"/><path class="cls-2" d="M681.78,265s-11.72-.93-22.42,10.18c0,0-7.3,7.61-9.41,11.87s-3.29,5-7,13.11c-1.64,3.42-7,5.41-7,5.41-17.54,6.64-42.62-2.37-42.62-2.37-52.48-18.67-63.77-124.26-63.77-124.26,1.88-2.77,2.5-20.28,2.5-20.28s24.58,98.36,46,124c12.54,15,32.66,18.44,47.19,18.7a19.52,19.52,0,0,0,16.88-9.07c1.44-2.28,3.11-5,5-8.18,4.23-7.24,14.74-16.62,14.74-16.62a21,21,0,0,1,10.77-3.22A37.85,37.85,0,0,1,681.78,265Z" transform="translate(-38.41 -8.12)"/></g><g id="Rechterarm"><path class="cls-1" d="M194,416c4.3-4.73,8.52-3.14,8.52-3.14-5.6,2.79-6,5.52-6,5.52-2.69,5.5,3.62,5.09,3.62,5.09,8.54-8.86,7.14-3.2,7.14-3.2-15.95,10.49,8.83,6.7,8.83,6.7,20.55.25,32.86,23.78,37.27,34.11a13.31,13.31,0,0,0,7.87,7.32c26.33,9.17,53.66-6.34,53.66-6.34s46-32.17,55.36-120.85c-4.86-11.88-.46-42.67-.46-42.67-55.68-2.09-66.51,117-66.51,117-3.2,15.86-31,32.62-43.26,16.69s-34.49-32-48.31-31.29a30.42,30.42,0,0,0-21.47,10.92C189,415.86,194,416,194,416Z" transform="translate(-38.41 -8.12)"/><path class="cls-2" d="M216.1,427s11.75-.71,22.24,10.61c0,0,7.14,7.73,9.18,12s3.19,5.05,6.79,13.24c1.57,3.45,6.93,5.54,6.93,5.54,17.41,7,42.65-1.57,42.65-1.57,52.82-17.69,66.09-123,66.09-123-1.83-2.8-2.11-20.32-2.11-20.32s-26.42,97.88-48.31,123.14c-14.21,16.38-37.46,18.34-52,17.71a12.5,12.5,0,0,1-10-5.8c-1.78-2.81-4.16-6.73-7-11.76-4.09-7.31-14.42-16.89-14.42-16.89a21.12,21.12,0,0,0-10.71-3.43A38.28,38.28,0,0,0,216.1,427Z" transform="translate(-38.41 -8.12)"/></g></g><g id="Laptop_blauw" data-name="Laptop blauw"><polygon class="cls-3" points="194.5 456.73 125.32 489.62 138.02 413.64 194.5 456.73"/><path class="cls-4" d="M211.64,457.38c-4-14.26-15-26.54-15-26.54L181.79,420l-13.26,79.31a6,6,0,0,1-2.33,2.82c-1.53.76,57.81-27.55,57.81-27.55S214.14,466.3,211.64,457.38Z" transform="translate(-38.41 -8.12)"/><polygon class="cls-5" points="136.05 468.89 167.96 455.87 140.95 435.38 136.05 468.89"/><polygon class="cls-3" points="11.19 397.25 125.32 489.62 143.3 382.07 28.41 294.23 11.19 397.25"/><g id="Layer_5" data-name="Layer 5"><g id="New_no_changes" data-name="New no changes"><path class="cls-6" d="M106.45,417.78a5.22,5.22,0,0,1-.73-3.6,3,3,0,0,1,1.57-2.42,3.29,3.29,0,0,1,3,.08l.25.12a5.91,5.91,0,0,1,2.41,2.37,5.35,5.35,0,0,1,.72,3.47,2.93,2.93,0,0,1-1.67,2.52,3.62,3.62,0,0,1-2.95-.19l-.22-.11A5.89,5.89,0,0,1,106.45,417.78Zm1.65-12.13c-.06-.94-.1-1.6-.14-2a7.91,7.91,0,0,0-.23-1.16,8.71,8.71,0,0,0-.57-1.42c-.27-.56-.65-1.24-1.13-2-1.75-2.85-3-4.89-3.64-6.07a18.93,18.93,0,0,1-1.63-3.91,10.3,10.3,0,0,1-.29-4.43,7.73,7.73,0,0,1,2.35-4.67,7.62,7.62,0,0,1,4.94-1.91,14.71,14.71,0,0,1,6.69,1.53l.92.45a19.57,19.57,0,0,1,5.72,4.42,19.35,19.35,0,0,1,3.87,6.39,12.38,12.38,0,0,1,.77,5.88,2.56,2.56,0,0,1-1.37,1.94,2.9,2.9,0,0,1-2.67,0l-.2-.1c-1.55-.8-2.47-2.34-2.74-4.58a16.46,16.46,0,0,0-1.52-5.21,7.09,7.09,0,0,0-3.18-2.93l-.5-.24a4.63,4.63,0,0,0-3.9-.3,3.33,3.33,0,0,0-1.93,2.75,4.74,4.74,0,0,0,.18,2.1,10.47,10.47,0,0,0,.92,2.16c.39.71,1.05,1.81,2,3.27,1,1.67,1.88,3.11,2.47,4.25a14.53,14.53,0,0,1,1.33,3.71,11.82,11.82,0,0,1,.07,4.21,2.89,2.89,0,0,1-1.36,2.38,2.84,2.84,0,0,1-2.47-.11l-.24-.12A4.52,4.52,0,0,1,108.1,405.65Z" transform="translate(-38.41 -8.12)"/></g></g><g id="Layer_6" data-name="Layer 6"><path class="cls-7" d="M179.75,432.13l-11.23,67.18a5.19,5.19,0,0,1-2.32,2.77,4.85,4.85,0,0,1-5.36-.28L68.78,427.34a38.9,38.9,0,0,1,20.29,2.84,7.15,7.15,0,0,1,.77.42A247.23,247.23,0,0,0,141,454.24C166.74,462.66,179.75,432.13,179.75,432.13Z" transform="translate(-38.41 -8.12)"/><path class="cls-7" d="M53.61,407.83a5.82,5.82,0,0,1-1.51-3.92c0-3.55,12-90.49,9-97.53L44.64,404.77a5,5,0,0,0,1.63,4.3l12.14,9.86A17.87,17.87,0,0,0,53.61,407.83Z" transform="translate(-38.41 -8.12)"/></g></g><g id="Laptop_paars" data-name="Laptop paars"><polygon class="cls-8" points="616.19 292.12 679.58 335.13 678.55 258.11 616.19 292.12"/><path class="cls-9" d="M676.76,296.09c6.12-13.49,18.87-23.95,18.87-23.95L712,263.62,713,344a5.9,5.9,0,0,0,1.88,3.14c1.4,1-53-36-53-36S672.94,304.53,676.76,296.09Z" transform="translate(-38.41 -8.12)"/><polygon class="cls-10" points="672.12 313.01 642.56 295.31 672.36 279.15 672.12 313.01"/><polygon class="cls-8" points="806.4 261.15 679.58 335.13 678.13 226.1 805.02 156.71 806.4 261.15"/><g id="New_no_changes-2" data-name="New no changes"><path class="cls-6" d="M784.09,274.78l-.24.07a3.6,3.6,0,0,1-2.94-.27,2.91,2.91,0,0,1-1.26-2.74,5.32,5.32,0,0,1,1.23-3.32,5.83,5.83,0,0,1,2.75-2l.25-.08a3.25,3.25,0,0,1,2.94.37,3,3,0,0,1,1.19,2.63,5.21,5.21,0,0,1-1.27,3.44A6,6,0,0,1,784.09,274.78Zm-.24-10.3-.25.08a2.83,2.83,0,0,1-2.45-.27,2.87,2.87,0,0,1-1-2.56,11.48,11.48,0,0,1,.72-4.15,13.94,13.94,0,0,1,1.87-3.46c.75-1,1.79-2.33,3.08-3.83,1.12-1.31,1.94-2.29,2.44-2.93a11.55,11.55,0,0,0,1.24-2,4.82,4.82,0,0,0,.49-2.06,3.34,3.34,0,0,0-1.49-3,4.64,4.64,0,0,0-3.9-.3l-.53.17a7.13,7.13,0,0,0-3.59,2.41,16.61,16.61,0,0,0-2.29,4.92c-.61,2.17-1.75,3.56-3.4,4.11l-.22.07a2.89,2.89,0,0,1-2.64-.37,2.5,2.5,0,0,1-1.06-2.12,12.39,12.39,0,0,1,1.66-5.7,20.07,20.07,0,0,1,11.11-9.22l1-.31a14.73,14.73,0,0,1,6.84-.5,7.6,7.6,0,0,1,4.6,2.64,7.81,7.81,0,0,1,1.61,5,10.41,10.41,0,0,1-.95,4.33,18.34,18.34,0,0,1-2.21,3.61c-.84,1.07-2.36,2.9-4.52,5.45-.59.71-1.07,1.33-1.43,1.84a8.29,8.29,0,0,0-.78,1.32,6.71,6.71,0,0,0-.39,1.11c-.1.36-.25,1-.44,1.93A4.54,4.54,0,0,1,783.85,264.48Z" transform="translate(-38.41 -8.12)"/></g><path class="cls-11" d="M712.11,276l.91,68.11a5.16,5.16,0,0,0,1.87,3.08,4.84,4.84,0,0,0,5.34.54l102.29-59.62a38.7,38.7,0,0,0-20.48-.27,5.85,5.85,0,0,0-.83.3,247.68,247.68,0,0,1-54.12,15.6C720.34,308.12,712.11,276,712.11,276Z" transform="translate(-38.41 -8.12)"/><path class="cls-11" d="M840.48,271.09a5.79,5.79,0,0,0,2.09-3.64c.56-3.5,1.9-91.26,5.92-97.76l1.33,99.74a5,5,0,0,1-2.27,4l-13.5,7.91A17.91,17.91,0,0,1,840.48,271.09Z" transform="translate(-38.41 -8.12)"/></g><g id="Vraagteken"><g id="New_no_changes-3" data-name="New no changes"><path class="cls-12" d="M385.14,509.7c-.89,0-1.79,0-2.7-.07a49.55,49.55,0,0,1-32.72-14.07c-9.14-8.78-13.39-20.73-12.63-35.52.67-13.14,5.9-24.12,15.55-32.64a46.52,46.52,0,0,1,31.67-11.86c1,0,1.94,0,2.92.08,13.13.67,24.11,5.79,32.64,15.23s12.5,20.89,11.83,34c-.74,14.58-6.12,26-16,33.89A47.8,47.8,0,0,1,385.14,509.7ZM388,393.16c-1,0-1.9,0-2.88-.07-10.94-.56-20.1-4.68-27.22-12.23s-10.42-18.5-9.71-32.45c.86-17,4.3-31.75,10.21-44a113.21,113.21,0,0,1,22.71-31.84,477.87,477.87,0,0,1,36.49-31.38c13.21-10.43,22.89-18.4,28.76-23.71a83.92,83.92,0,0,0,14.87-17.71,43.72,43.72,0,0,0,6.61-21.23c.77-15.14-4.28-28.4-15-39.39s-25.39-17.12-43.38-18c-2-.11-4.07-.16-6-.16-18.1,0-32,4.57-41.38,13.59-10.6,10.22-20.08,25.9-28.17,46.6-7.9,22.1-21.4,33.34-40.11,33.34-.82,0-1.63,0-2.46-.06a40.33,40.33,0,0,1-29.28-14c-7.65-8.69-11.28-18.05-10.79-27.8,1-19.27,8.24-38.71,21.56-57.77s32.31-34.6,56.5-46.28c21.28-10.26,45.64-15.47,72.42-15.47,3.66,0,7.42.1,11.18.29,29.08,1.48,54.85,8.26,76.61,20.15s38.61,27.71,49.89,46.92a109.53,109.53,0,0,1,15.34,61.94c-.88,17.23-5.22,32.39-12.91,45.06a139.09,139.09,0,0,1-26.61,32.28c-9.92,8.77-27.87,23.63-53.34,44.18A206.84,206.84,0,0,0,445,319.17a64.23,64.23,0,0,0-9.4,11.9,60.81,60.81,0,0,0-5,11c-1.27,3.75-3.26,10.5-5.93,20.07C419.76,382.68,407.43,393.16,388,393.16Z" transform="translate(-38.41 -8.12)"/></g><path class="cls-13" d="M406.16,389.11s0-.26,0-.76c.5-6.57,5.21-54.44,38.68-87.09,25.6-25,53-45.32,65.09-56.78,6.76-6.37,16.42-18.57,20.69-26.18,16-31.7,17.77-52.15-.22-87.33-18.15-39.48-70-64.23-120.08-67.71,0,0-75.56-10.14-126.13,57a96.26,96.26,0,0,0-14.32,24.31c-3.51,8.59-9,22.43-16.34,42.52,0,0-8-13,3.8-43.43,4.74-12.25,13.81-31.38,36.18-51.79,14.14-12.9,25.89-23.36,67.5-34.29s84.15,0,84.15,0,33.46,5.29,63.62,28.62c11.73,8.56,38.5,33.78,44.39,71.66,9,41.23-13.81,73.46-13.81,73.46S526.81,251.78,509,265.1c-15.55,13.06-42.66,35.18-42.66,35.18s-22.53,17.8-29.11,28.13-11.82,30.77-11.82,30.77-4.43,17.3-10,22.45S407.66,388.38,406.16,389.11Z" transform="translate(-38.41 -8.12)"/><path class="cls-13" d="M409.24,503.2s29.09-46.29,0-81.15c0,0,20.93,10.75,22.51,38.76C431.75,460.81,435.14,488.47,409.24,503.2Z" transform="translate(-38.41 -8.12)"/><path class="cls-14" d="M363.27,420.25s-26.62,37.55-3.39,82.95a43.65,43.65,0,0,1-22.45-32.81C334,446.38,347.7,427.34,363.27,420.25Z" transform="translate(-38.41 -8.12)"/><path class="cls-14" d="M348.2,356.19s-.05,18.56,14.11,28.73c12.32-63.2,41.49-99.25,57.54-115.06,2.13-1.91,55.79-39.8,66.37-61.63,3.7-7.63,12.88-35.18,3.56-60.3C475.84,110.36,429,101.86,429,101.86S316.11,75.62,300.85,214c0,0,14.59-1.21,24.87-16.5l.44-.64a10.86,10.86,0,0,0,.85-1.53l16.37-35s3.06-7.36,12.73-19.31,20.49-15.55,20.49-15.55,29.54-11,58.92,1.69,32.81,41.33,32.37,48.36-.11,12.59-5.28,21.91-7.7,13.82-34.11,35.12-49.23,41.91-49.23,41.91S346.39,306,348.2,356.19Z" transform="translate(-38.41 -8.12)"/></g><g id="Scherm"><path class="cls-15" d="M100.59,89.93l9.21-76.42a6.14,6.14,0,0,1,9.73-4.17l91.22,68.15a6.11,6.11,0,0,1,2.4,5.66l-9.72,77.66a6.12,6.12,0,0,1-9.79,4.1l-90.7-69.39A6.11,6.11,0,0,1,100.59,89.93Z" transform="translate(-38.41 -8.12)"/><g id="Tekst"><path class="cls-16" d="M127.41,31.93l48.27,35.16a1.78,1.78,0,0,1,.72,1.64h0A1.78,1.78,0,0,1,173.58,70L125.32,35a1.82,1.82,0,0,1-.74-1.4v-.19A1.78,1.78,0,0,1,127.41,31.93Z" transform="translate(-38.41 -8.12)"/><path class="cls-16" d="M124.69,41.67l42,30.61a1.81,1.81,0,0,1,.32,2.61h0a1.8,1.8,0,0,1-2.43.3l-42-30.45a1.8,1.8,0,0,1-.74-1.41v-.16A1.79,1.79,0,0,1,124.69,41.67Z" transform="translate(-38.41 -8.12)"/><path class="cls-17" d="M120.37,62.93,142,78.69a1.82,1.82,0,0,1,.36,2.6h0a1.82,1.82,0,0,1-2.51.35L118.22,66a1.83,1.83,0,0,1-.75-1.43v-.08A1.83,1.83,0,0,1,120.37,62.93Z" transform="translate(-38.41 -8.12)"/><path class="cls-17" d="M116.72,81.57l11.07,8.06a1.86,1.86,0,0,1,.3,2.71h0a1.84,1.84,0,0,1-2.46.27l-11.08-8a1.87,1.87,0,0,1-.76-1.44v0A1.84,1.84,0,0,1,116.72,81.57Z" transform="translate(-38.41 -8.12)"/><path class="cls-17" d="M123.09,52.18l48.27,35.16a1.8,1.8,0,0,1,.72,1.64h0a1.78,1.78,0,0,1-2.82,1.25L121,55.25a1.79,1.79,0,0,1-.74-1.39v-.19A1.78,1.78,0,0,1,123.09,52.18Z" transform="translate(-38.41 -8.12)"/><path class="cls-17" d="M118.9,72.85l42,30.61a1.79,1.79,0,0,1,.32,2.6h0a1.78,1.78,0,0,1-2.43.3l-42-30.45a1.79,1.79,0,0,1-.74-1.4v-.16A1.79,1.79,0,0,1,118.9,72.85Z" transform="translate(-38.41 -8.12)"/><path class="cls-18" d="M115.57,90.63l11.07,8.06a1.84,1.84,0,0,1,.3,2.71h0a1.84,1.84,0,0,1-2.46.27l-11.07-8a1.82,1.82,0,0,1-.76-1.44v0A1.84,1.84,0,0,1,115.57,90.63Z" transform="translate(-38.41 -8.12)"/></g><path class="cls-19" d="M166.12,138.7,189,156.2s6.68,3.82,8.82-3.7h0s3.65-29.08,6.69-39.32c0,0,3.71-11,4.43-18.68s-1-13,.16-15.19l1.18-2.17a6.29,6.29,0,0,1,2.92,5.52c-.3,3.59-9.77,78.15-9.77,78.15a5.8,5.8,0,0,1-3.89,4.95,5.57,5.57,0,0,1-5.9-.85l-43.32-33.14s3.19.09,7.36,3.57,5.77,3,5.77,3a4.12,4.12,0,0,1,2.67.33" transform="translate(-38.41 -8.12)"/><path class="cls-20" d="M105.21,51.56s2-10.34,3.35-11.29,2.4-6.72,2.37-7.51-2.14-6.33-.08-12.47,4.5-6.78,4.5-6.78,2.09-1.55,5.68-.15,7.56,5.7,7.56,5.7a6.25,6.25,0,0,0,4.14,2.47,25.23,25.23,0,0,1,5.65,1.9L119.53,9.34a6.17,6.17,0,0,0-6-.72c.21-.09-2.89,1.17-3.46,3.83s-4.81,39.11-4.81,39.11" transform="translate(-38.41 -8.12)"/><path class="cls-21" d="M713.47,95.44l3.06-76.91a6.14,6.14,0,0,0-8.95-5.66L606.69,65.63a6.13,6.13,0,0,0-3.28,5.21l-2.75,78.21a6.12,6.12,0,0,0,9,5.61l100.58-54.07A6.14,6.14,0,0,0,713.47,95.44Z" transform="translate(-38.41 -8.12)"/><g id="Tekst-2" data-name="Tekst"><path class="cls-16" d="M696.21,33.92,643,61a1.78,1.78,0,0,0-1,1.5h0a1.79,1.79,0,0,0,2.59,1.68l53.21-26.85a1.75,1.75,0,0,0,1-1.26l0-.18A1.78,1.78,0,0,0,696.21,33.92Z" transform="translate(-38.41 -8.12)"/><path class="cls-16" d="M697.35,44,651,67.5a1.8,1.8,0,0,0-.73,2.52h0a1.8,1.8,0,0,0,2.35.68l46.33-23.38a1.77,1.77,0,0,0,.95-1.27l0-.15A1.79,1.79,0,0,0,697.35,44Z" transform="translate(-38.41 -8.12)"/><path class="cls-17" d="M698.24,65.64,674.37,77.76a1.81,1.81,0,0,0-.77,2.5h0A1.82,1.82,0,0,0,676,81l23.85-12a1.83,1.83,0,0,0,1-1.29l0-.08A1.83,1.83,0,0,0,698.24,65.64Z" transform="translate(-38.41 -8.12)"/><path class="cls-17" d="M698.87,84.62l-12.21,6.2a1.84,1.84,0,0,0-.73,2.62h0a1.84,1.84,0,0,0,2.39.67L700.53,88a1.86,1.86,0,0,0,1-1.3v0A1.85,1.85,0,0,0,698.87,84.62Z" transform="translate(-38.41 -8.12)"/><path class="cls-17" d="M697.26,54.59,644,81.63a1.76,1.76,0,0,0-1,1.49h0a1.78,1.78,0,0,0,2.58,1.69L698.83,58a1.77,1.77,0,0,0,.95-1.26l0-.18A1.79,1.79,0,0,0,697.26,54.59Z" transform="translate(-38.41 -8.12)"/><path class="cls-17" d="M698.11,75.67,651.75,99.2a1.8,1.8,0,0,0-.73,2.52h0a1.79,1.79,0,0,0,2.35.68L699.7,79a1.79,1.79,0,0,0,.95-1.27l0-.16A1.79,1.79,0,0,0,698.11,75.67Z" transform="translate(-38.41 -8.12)"/><path class="cls-18" d="M698.56,93.75,686.35,100a1.84,1.84,0,0,0-.73,2.62h0a1.85,1.85,0,0,0,2.39.66l12.21-6.15a1.86,1.86,0,0,0,1-1.31v0A1.84,1.84,0,0,0,698.56,93.75Z" transform="translate(-38.41 -8.12)"/></g><path class="cls-22" d="M641,133.16,615.64,146.8s-7.21,2.71-8.12-5.05h0s1-29.3-.35-39.89c0,0-1.91-11.49-1.4-19.14s3.07-12.71,2.26-15l-.82-2.33s-3.48,1.4-3.76,5-2.79,78.7-2.79,78.7a5.79,5.79,0,0,0,3.05,5.51,5.57,5.57,0,0,0,6,.1l48-25.83s-3.17-.41-7.83,2.36-6.18,2.07-6.18,2.07a4.14,4.14,0,0,0-2.69-.1" transform="translate(-38.41 -8.12)"/><path class="cls-23" d="M715,56.82s-.35-10.52-1.51-11.68-1.3-7-1.15-7.78,3.12-5.91,2.06-12.3-3.36-7.41-3.36-7.41-1.81-1.86-5.58-1.06S697.1,21,697.1,21a6.24,6.24,0,0,1-4.48,1.78,25.06,25.06,0,0,0-5.88,1l20.84-10.9a6.2,6.2,0,0,1,6.09.24c-.19-.12,2.67,1.62,2.81,4.34S715,56.82,715,56.82" transform="translate(-38.41 -8.12)"/><path class="cls-15" d="M176.61,269.06l9.21-76.42a6.15,6.15,0,0,1,9.74-4.17l91.21,68.15a6.08,6.08,0,0,1,2.41,5.66l-9.73,77.66a6.11,6.11,0,0,1-9.78,4.09L179,274.65A6.14,6.14,0,0,1,176.61,269.06Z" transform="translate(-38.41 -8.12)"/><g id="Tekst-3" data-name="Tekst"><path class="cls-16" d="M203.44,211.06l48.27,35.16a1.8,1.8,0,0,1,.72,1.64h0a1.78,1.78,0,0,1-2.82,1.25l-48.26-35a1.79,1.79,0,0,1-.74-1.39v-.19A1.78,1.78,0,0,1,203.44,211.06Z" transform="translate(-38.41 -8.12)"/><path class="cls-16" d="M200.72,220.8l42,30.61a1.8,1.8,0,0,1,.31,2.61h0a1.79,1.79,0,0,1-2.42.3l-42-30.45a1.8,1.8,0,0,1-.74-1.41v-.16A1.79,1.79,0,0,1,200.72,220.8Z" transform="translate(-38.41 -8.12)"/><path class="cls-17" d="M196.4,242.06,218,257.82a1.82,1.82,0,0,1,.36,2.6h0a1.82,1.82,0,0,1-2.51.35L194.25,245.1a1.8,1.8,0,0,1-.75-1.43v-.08A1.82,1.82,0,0,1,196.4,242.06Z" transform="translate(-38.41 -8.12)"/><path class="cls-17" d="M192.75,260.7l11.07,8.06a1.85,1.85,0,0,1,.3,2.7h0a1.84,1.84,0,0,1-2.47.28l-11.07-8a1.87,1.87,0,0,1-.76-1.44v0A1.84,1.84,0,0,1,192.75,260.7Z" transform="translate(-38.41 -8.12)"/><path class="cls-17" d="M199.12,231.31l48.27,35.16a1.79,1.79,0,0,1,.72,1.63h0a1.79,1.79,0,0,1-2.82,1.26l-48.26-35a1.76,1.76,0,0,1-.74-1.39v-.19A1.79,1.79,0,0,1,199.12,231.31Z" transform="translate(-38.41 -8.12)"/><path class="cls-17" d="M194.92,252l42,30.61a1.8,1.8,0,0,1,.32,2.6h0a1.79,1.79,0,0,1-2.43.3l-42-30.45a1.76,1.76,0,0,1-.74-1.4v-.16A1.79,1.79,0,0,1,194.92,252Z" transform="translate(-38.41 -8.12)"/><path class="cls-18" d="M191.6,269.76l11.07,8.06a1.84,1.84,0,0,1,.3,2.71h0a1.84,1.84,0,0,1-2.46.27l-11.07-8a1.82,1.82,0,0,1-.76-1.44v0A1.84,1.84,0,0,1,191.6,269.76Z" transform="translate(-38.41 -8.12)"/></g><path class="cls-19" d="M242.15,317.83,265,335.33s6.68,3.82,8.82-3.7h0s3.65-29.09,6.69-39.32c0,0,3.71-11,4.43-18.68s-1-13,.16-15.19l1.18-2.17a6.27,6.27,0,0,1,2.91,5.52c-.29,3.59-9.77,78.15-9.77,78.15a5.78,5.78,0,0,1-3.88,4.95,5.57,5.57,0,0,1-5.9-.86L226.35,310.9s3.19.09,7.36,3.56,5.77,3,5.77,3a4.12,4.12,0,0,1,2.67.33" transform="translate(-38.41 -8.12)"/><path class="cls-20" d="M181.24,230.69s2-10.34,3.35-11.29,2.39-6.72,2.37-7.51-2.14-6.33-.08-12.47,4.5-6.78,4.5-6.78,2.08-1.55,5.68-.15,7.56,5.7,7.56,5.7a6.21,6.21,0,0,0,4.14,2.47,25.5,25.5,0,0,1,5.65,1.89l-18.85-14.08a6.17,6.17,0,0,0-6.05-.72c.21-.09-2.89,1.17-3.46,3.83s-4.81,39.11-4.81,39.11" transform="translate(-38.41 -8.12)"/><path class="cls-15" d="M38.45,230.08l9.22-76.42a6.14,6.14,0,0,1,9.73-4.17l91.21,68.15A6.08,6.08,0,0,1,151,223.3L141.3,301a6.12,6.12,0,0,1-9.79,4.09l-90.7-69.38A6.14,6.14,0,0,1,38.45,230.08Z" transform="translate(-38.41 -8.12)"/><g id="Tekst-4" data-name="Tekst"><path class="cls-16" d="M65.28,172.08l48.27,35.16a1.78,1.78,0,0,1,.72,1.64h0a1.78,1.78,0,0,1-2.82,1.25l-48.26-35a1.79,1.79,0,0,1-.74-1.39v-.19A1.78,1.78,0,0,1,65.28,172.08Z" transform="translate(-38.41 -8.12)"/><path class="cls-16" d="M62.56,181.82l42,30.61a1.8,1.8,0,0,1,.31,2.61h0a1.79,1.79,0,0,1-2.42.3l-42-30.46a1.76,1.76,0,0,1-.74-1.4v-.16A1.79,1.79,0,0,1,62.56,181.82Z" transform="translate(-38.41 -8.12)"/><path class="cls-17" d="M58.24,203.08l21.63,15.76a1.82,1.82,0,0,1,.36,2.6h0a1.82,1.82,0,0,1-2.51.35L56.09,206.12a1.8,1.8,0,0,1-.75-1.43v-.08A1.83,1.83,0,0,1,58.24,203.08Z" transform="translate(-38.41 -8.12)"/><path class="cls-17" d="M54.59,221.72l11.07,8.06a1.85,1.85,0,0,1,.3,2.7h0a1.84,1.84,0,0,1-2.47.28l-11.07-8a1.87,1.87,0,0,1-.76-1.44v0A1.84,1.84,0,0,1,54.59,221.72Z" transform="translate(-38.41 -8.12)"/><path class="cls-17" d="M61,192.33l48.27,35.16a1.79,1.79,0,0,1,.72,1.63h0a1.79,1.79,0,0,1-2.82,1.26l-48.26-35a1.76,1.76,0,0,1-.74-1.39v-.19A1.79,1.79,0,0,1,61,192.33Z" transform="translate(-38.41 -8.12)"/><path class="cls-17" d="M56.77,213l42,30.61a1.79,1.79,0,0,1,.32,2.6h0a1.79,1.79,0,0,1-2.43.3l-42-30.45a1.79,1.79,0,0,1-.74-1.4v-.16A1.79,1.79,0,0,1,56.77,213Z" transform="translate(-38.41 -8.12)"/><path class="cls-18" d="M53.44,230.78l11.07,8.06a1.83,1.83,0,0,1,.3,2.7h0a1.83,1.83,0,0,1-2.46.28l-11.07-8a1.82,1.82,0,0,1-.76-1.44v0A1.84,1.84,0,0,1,53.44,230.78Z" transform="translate(-38.41 -8.12)"/></g><path class="cls-19" d="M104,278.85l22.88,17.5s6.68,3.82,8.82-3.7h0s3.65-29.09,6.69-39.32c0,0,3.71-11,4.43-18.68s-1-13,.16-15.2l1.18-2.16a6.27,6.27,0,0,1,2.91,5.52c-.29,3.59-9.76,78.15-9.76,78.15a5.8,5.8,0,0,1-3.89,5,5.59,5.59,0,0,1-5.9-.86L88.19,271.92s3.19.09,7.36,3.56,5.77,3,5.77,3a4.12,4.12,0,0,1,2.67.33" transform="translate(-38.41 -8.12)"/><path class="cls-20" d="M43.08,191.71s2-10.34,3.35-11.29,2.39-6.72,2.37-7.51-2.14-6.33-.08-12.47,4.5-6.78,4.5-6.78,2.08-1.55,5.68-.15,7.56,5.7,7.56,5.7a6.21,6.21,0,0,0,4.14,2.47,25.5,25.5,0,0,1,5.65,1.89L57.4,149.49a6.17,6.17,0,0,0-6-.72c.21-.09-2.89,1.17-3.46,3.83s-4.81,39.11-4.81,39.11" transform="translate(-38.41 -8.12)"/><path class="cls-21" d="M842.89,127,846,50.13a6.15,6.15,0,0,0-9-5.67L736.11,97.22a6.13,6.13,0,0,0-3.28,5.21l-2.75,78.22a6.11,6.11,0,0,0,9,5.6l100.58-54.07A6.13,6.13,0,0,0,842.89,127Z" transform="translate(-38.41 -8.12)"/><g id="Tekst-5" data-name="Tekst"><path class="cls-16" d="M825.63,65.51l-53.25,27a1.77,1.77,0,0,0-1,1.5h0A1.78,1.78,0,0,0,774,95.73l53.22-26.86a1.81,1.81,0,0,0,.95-1.26l0-.18A1.78,1.78,0,0,0,825.63,65.51Z" transform="translate(-38.41 -8.12)"/><path class="cls-16" d="M826.76,75.56,780.4,99.09a1.79,1.79,0,0,0-.72,2.52h0a1.78,1.78,0,0,0,2.35.68l46.32-23.37a1.83,1.83,0,0,0,1-1.27l0-.16A1.79,1.79,0,0,0,826.76,75.56Z" transform="translate(-38.41 -8.12)"/><path class="cls-17" d="M827.65,97.23l-23.86,12.12a1.82,1.82,0,0,0-.77,2.5h0a1.82,1.82,0,0,0,2.42.76l23.85-12a1.84,1.84,0,0,0,1-1.29V99.2A1.83,1.83,0,0,0,827.65,97.23Z" transform="translate(-38.41 -8.12)"/><path class="cls-17" d="M828.29,116.21l-12.21,6.2a1.84,1.84,0,0,0-.73,2.62h0a1.84,1.84,0,0,0,2.39.67L830,119.54a1.82,1.82,0,0,0,1-1.3v0A1.84,1.84,0,0,0,828.29,116.21Z" transform="translate(-38.41 -8.12)"/><path class="cls-17" d="M826.67,86.19l-53.24,27a1.8,1.8,0,0,0-1,1.5h0A1.78,1.78,0,0,0,775,116.4l53.21-26.85a1.75,1.75,0,0,0,1-1.26l0-.18A1.78,1.78,0,0,0,826.67,86.19Z" transform="translate(-38.41 -8.12)"/><path class="cls-17" d="M827.53,107.26l-46.36,23.53a1.8,1.8,0,0,0-.73,2.52h0a1.8,1.8,0,0,0,2.35.69l46.33-23.38a1.8,1.8,0,0,0,1-1.27l0-.16A1.79,1.79,0,0,0,827.53,107.26Z" transform="translate(-38.41 -8.12)"/><path class="cls-18" d="M828,125.34l-12.21,6.2a1.83,1.83,0,0,0-.73,2.62h0a1.84,1.84,0,0,0,2.39.67l12.21-6.16a1.86,1.86,0,0,0,1-1.3v0A1.84,1.84,0,0,0,828,125.34Z" transform="translate(-38.41 -8.12)"/></g><path class="cls-22" d="M770.42,164.75l-25.36,13.64s-7.21,2.71-8.12-5h0s1-29.3-.36-39.89c0,0-1.9-11.49-1.39-19.14s3.07-12.7,2.25-15L736.63,97s-3.48,1.4-3.76,5-2.79,78.71-2.79,78.71a5.78,5.78,0,0,0,3,5.5,5.58,5.58,0,0,0,6,.1l48-25.82s-3.17-.42-7.83,2.35-6.19,2.08-6.19,2.08a4.1,4.1,0,0,0-2.69-.11" transform="translate(-38.41 -8.12)"/><path class="cls-23" d="M844.43,88.42s-.35-10.53-1.51-11.68-1.3-7-1.15-7.79,3.12-5.91,2.06-12.3-3.36-7.41-3.36-7.41-1.81-1.86-5.58-1.06-8.38,4.43-8.38,4.43A6.23,6.23,0,0,1,822,54.39a25.08,25.08,0,0,0-5.89,1L837,44.46a6.18,6.18,0,0,1,6.09.25c-.19-.13,2.67,1.61,2.81,4.33s-1.47,39.38-1.47,39.38" transform="translate(-38.41 -8.12)"/></g></svg>