<?xml version="1.0" encoding="UTF-8"?>
<svg viewBox="0 0 457.85 457.03" xmlns="http://www.w3.org/2000/svg">
<defs>
<style>.cls-1{fill:#ffc5bb;}.cls-2{fill:#f59493;}.cls-3{fill:#f59b46;}.cls-4{fill:#f9e2d2;}.cls-5{fill:#db7736;}.cls-6{fill:#e0bb96;}.cls-7{fill:#47d69f;}.cls-8{fill:#fff;}.cls-9{fill:#e56c6c;}.cls-10{fill:#c1ead6;}.cls-11{fill:#2a825e;}.cls-12{fill:#80e5b5;}.cls-13{fill:#d1ad95;}.cls-14{fill:#f4ece4;}.cls-15{fill:#619aff;}.cls-16{fill:#a1c7ff;}.cls-17{fill:#457bc9;}</style>
</defs>
<title>Question-mark_illustration_phone</title>
<path class="cls-1" transform="translate(-12.74 -7.67)" d="M314.91,299.62s9.6,141,86,159.68c0,0,18.45,5.34,31.78-7.33s16.82-39.15,16.82-39.15,3.85-7.74,10.37-10.7c0,0,3.59-4.59-2.63-5.26s-10.56,5.56-10.56,5.56-1.48,1.92-2.52,0c-.89-1.66-.46-10.68-.33-13.15a1.76,1.76,0,0,0-.4-1.23c-.76-.88-2.38-2.19-4,.3-2.22,3.41-.89,13.48-.89,13.48s-2.16-9.21-1.58-13.12a1.44,1.44,0,0,0-.35-1.17c-.62-.71-1.84-1.55-3.49.14a1.78,1.78,0,0,0-.52,1.17,51.46,51.46,0,0,0-.1,5.66c.14,1.37.3,8.3.3,8.3s-.11,10.18-2.22,14.39c-1.56,3.11-4.38,7.23-6.11,11.47a14.43,14.43,0,0,1-14.94,9c-7.8-.94-18-5.76-26.39-21.94-16-30.82-8.51-85.38-23.71-112.3-25.31-44.83-58.55-49-58.55-49s13.94,26.9,14,45.21"/>
<path class="cls-2" transform="translate(-12.74 -7.67)" d="M315.14,309S326,380.67,343.7,409.5s27.93,40.82,53,49.93c0,0,29.75,11.13,43.93-17.11a90.11,90.11,0,0,0,7.08-19.19s-7.86,15.36-12.12,21.17c0,0-5.61,9.58-14.21,10.69s-17.11.85-27.33-4.78S375.23,438.77,368,429.44,349.3,404,345.89,391.21s-20.38-54.67-26.12-93.45a7.76,7.76,0,0,0-.72-2.31l-9.2-18.62s6.4,22.5,5.29,32.16"/>
<path class="cls-1" transform="translate(-12.74 -7.67)" d="M169.18,100.08s-9.6,141-86,159.69c0,0-18.45,5.33-31.78-7.34s-16.81-39.14-16.81-39.14-3.86-7.75-10.37-10.71c0,0-3.6-4.59,2.63-5.26s10.55,5.56,10.55,5.56,1.48,1.92,2.52,0c.89-1.66.47-10.68.33-13.15a1.72,1.72,0,0,1,.41-1.23c.75-.88,2.38-2.19,4,.3,2.22,3.41.89,13.48.89,13.48s2.17-9.21,1.58-13.12a1.48,1.48,0,0,1,.35-1.16c.62-.72,1.84-1.55,3.49.13a1.8,1.8,0,0,1,.52,1.17,54.13,54.13,0,0,1,.11,5.66c-.15,1.37-.31,8.31-.31,8.31s.12,10.17,2.22,14.39c1.56,3.11,4.38,7.22,6.11,11.46a14.43,14.43,0,0,0,15,9c7.79-.93,18-5.76,26.39-21.94,16-30.81,8.5-85.38,23.7-112.3,25.31-44.82,58.56-49,58.56-49s-14,26.9-14,45.21"/>
<path class="cls-2" transform="translate(-12.74 -7.67)" d="M169,109.45S158.13,181.13,140.39,210s-27.92,40.82-53,49.93c0,0-29.75,11.14-43.94-17.11a90.11,90.11,0,0,1-7.08-19.19S44.25,239,48.51,244.77c0,0,5.62,9.57,14.21,10.68s17.11.86,27.33-4.77,18.82-11.45,26.08-20.78,18.66-25.48,22.07-38.22S158.58,137,164.32,98.22a7.85,7.85,0,0,1,.72-2.31l9.21-18.62s-6.41,22.5-5.3,32.16"/>
<path class="cls-3" transform="translate(-12.74 -7.67)" d="m429.58 399.9 5.93-28.3a3 3 0 0 1 2.94-2.39h18.31a3 3 0 0 1 2.94 3.62l-5.9 28.3a3 3 0 0 1-2.94 2.38h-18.34a3 3 0 0 1-2.94-3.61z"/>
<polygon class="cls-4" points="422.13 389.49 427.12 366.76 441.92 367.13 437.1 389.86"/>
<path class="cls-5" transform="translate(-12.74 -7.67)" d="M441.66,403.51s8.74-2.53,10.87-9.29a28.89,28.89,0,0,0,2.41-8.32,18,18,0,0,1,2.22-7l2.61-6.84-5.12,25-.94,4.41a3,3,0,0,1-2.72,2.05Z"/>
<path class="cls-1" transform="translate(-12.74 -7.67)" d="m449.55 412.9s3.85-7.75 10.37-10.71c0 0 3.59-4.59-2.63-5.26s-10.56 5.56-10.56 5.56-4 5.95-5.07 4"/>
<path class="cls-6" transform="translate(-12.74 -7.67)" d="m429.77 399s5.19-7.61 5.92-13 2.25-11.94 2.25-11.94 2-2.67 6.7-2.33a13.43 13.43 0 0 0 8.35-2.53h-14.94a3.21 3.21 0 0 0-2.54 2.39z"/>
<rect class="cls-7" transform="translate(-1.06 -21.06) rotate(1.74)" x="440.97" y="376.86" width="11.15" height="1.67" rx=".83"/>
<rect class="cls-7" transform="translate(-.96 -21.12) rotate(1.74)" x="445.85" y="380.28" width="5.57" height="1.67" rx=".83"/>
<rect class="cls-8" transform="translate(-.86 -21.06) rotate(1.74)" x="441.99" y="383.57" width="9.11" height="1.67" rx=".83"/>
<rect class="cls-8" transform="translate(-.76 -21.02) rotate(1.74)" x="440.11" y="386.91" width="10.33" height="1.67" rx=".83"/>
<rect class="cls-8" transform="translate(-.65 -21.02) rotate(1.74)" x="441.22" y="390.6" width="8.13" height="1.67" rx=".83"/>
<rect class="cls-9" transform="translate(-.54 -21.06) rotate(1.74)" x="445.18" y="394.08" width="3.39" height="1.67" rx=".83"/>
<path class="cls-7" transform="translate(-12.74 -7.67)" d="m54.51 200.36-5.93-28.3a3 3 0 0 0-2.93-2.39h-18.32a3 3 0 0 0-2.94 3.62l5.9 28.3a3 3 0 0 0 2.94 2.41h18.35a3 3 0 0 0 2.93-3.64z"/>
<polygon class="cls-10" points="36.48 189.95 31.49 167.22 16.69 167.59 21.51 190.32"/>
<path class="cls-11" transform="translate(-12.74 -7.67)" d="M42.43,204s-8.74-2.53-10.87-9.29a28.68,28.68,0,0,1-2.4-8.32,18.08,18.08,0,0,0-2.23-7.05l-2.6-6.84,5.11,25,.94,4.41A3,3,0,0,0,33.1,204Z"/>
<path class="cls-12" transform="translate(-12.74 -7.67)" d="m54.33 199.47s-5.2-7.61-5.92-13-2.25-11.94-2.25-11.94-2-2.67-6.71-2.33a13.43 13.43 0 0 1-8.35-2.53h14.95a3.21 3.21 0 0 1 2.53 2.39z"/>
<rect class="cls-3" transform="translate(70 346.81) rotate(177.45)" x="31.85" y="177.33" width="11.15" height="1.67" rx=".83"/>
<rect class="cls-3" transform="translate(66.07 353.79) rotate(177.45)" x="32.59" y="180.78" width="5.57" height="1.67" rx=".83"/>
<rect class="cls-8" transform="translate(70.48 360.21) rotate(177.45)" x="32.96" y="184.03" width="9.11" height="1.67" rx=".83"/>
<rect class="cls-8" transform="translate(73.26 366.8) rotate(177.45)" x="33.67" y="187.36" width="10.33" height="1.67" rx=".83"/>
<rect class="cls-8" transform="translate(73.51 374.19) rotate(177.45)" x="34.81" y="191.06" width="8.13" height="1.67" rx=".83"/>
<rect class="cls-9" transform="translate(70.59 381.25) rotate(177.45)" x="35.64" y="194.55" width="3.39" height="1.67" rx=".83"/>
<path class="cls-1" transform="translate(-12.74 -7.67)" d="M34.55,213.36s-3.86-7.74-10.37-10.71c0,0-3.6-4.59,2.63-5.26S37.36,203,37.36,203s4,6,5.07,4"/>
<path class="cls-4" transform="translate(-12.74 -7.67)" d="m438.83 341.52-1.58 7.7a2 2 0 0 0 1.91 2.4l16 0.44a2 2 0 0 0 2-1.67l1.29-7.83a2 2 0 0 0-1.93-2.33l-15.71-0.31a2 2 0 0 0-1.98 1.6z"/>
<polygon class="cls-4" points="442.68 344.38 445.43 345.8 444.18 342.97"/>
<rect class="cls-7" transform="translate(-2.13 -21.15) rotate(1.74)" x="443.96" y="341.88" width="9.85" height="1.47" rx=".74"/>
<rect class="cls-8" transform="translate(-2.04 -21.15) rotate(1.74)" x="444.86" y="344.84" width="8.05" height="1.47" rx=".74"/>
<rect class="cls-9" transform="translate(-1.95 -21.15) rotate(1.74)" x="445.85" y="347.75" width="6.46" height="1.47" rx=".74"/>
<path class="cls-13" transform="translate(-12.74 -7.67)" d="M458.17,353.47s-.71-.92-1.23-1.65a3.05,3.05,0,0,1-.55-1.75c0-.45.06-1,.08-1.54a14.86,14.86,0,0,1,.51-2.88,11.25,11.25,0,0,0,.55-3.27l-.37-2a1.94,1.94,0,0,1,1.32,1.73,1.77,1.77,0,0,1,0,.33l-1.3,7.9a2.27,2.27,0,0,1-.16.57Z"/>
<path class="cls-14" transform="translate(-12.74 -7.67)" d="M439.94,351.64a2.78,2.78,0,0,1-1.72-3c.34-2.19,1.24-6.69,1.24-6.69s-.16-1.37,1.93-2.05c0,0-1.65-.22-2.28.9a2.52,2.52,0,0,0-.28.65l-1.62,8a2,2,0,0,0,2.16,2.14Z"/>
<g data-name="Message">
<path class="cls-4" transform="translate(-12.74 -7.67)" d="m450.92 319.64-1.57 7.7a2 2 0 0 0 1.91 2.4l16 0.44a2 2 0 0 0 2-1.67l1.29-7.84a2 2 0 0 0-1.94-2.32l-15.7-0.31a2 2 0 0 0-1.99 1.6z"/>
<polygon class="cls-4" points="454.78 322.5 457.52 323.92 456.27 321.09"/>
</g>
<rect class="cls-7" transform="translate(-2.79 -21.53) rotate(1.74)" x="456.06" y="319.99" width="9.85" height="1.47" rx=".74"/>
<rect class="cls-7" transform="translate(-2.7 -21.52) rotate(1.74)" x="456.96" y="322.96" width="8.05" height="1.47" rx=".74"/>
<rect class="cls-8" transform="translate(-2.61 -21.53) rotate(1.74)" x="457.95" y="325.87" width="6.46" height="1.47" rx=".74"/>
<path class="cls-13" transform="translate(-12.74 -7.67)" d="M470.27,331.59s-.71-.93-1.23-1.66a3,3,0,0,1-.55-1.74c0-.45.06-1,.08-1.54a14.86,14.86,0,0,1,.51-2.88,11.25,11.25,0,0,0,.55-3.27l-.37-2a1.94,1.94,0,0,1,1.32,1.73,1.77,1.77,0,0,1,0,.33l-1.3,7.9a2.79,2.79,0,0,1-.16.57Z"/>
<path class="cls-14" transform="translate(-12.74 -7.67)" d="M452,329.76a2.78,2.78,0,0,1-1.72-3c.33-2.19,1.24-6.69,1.24-6.69s-.16-1.37,1.93-2.05c0,0-1.65-.23-2.28.9a2.52,2.52,0,0,0-.28.65l-1.62,8a2,2,0,0,0,2.15,2.14Z"/>
<g data-name="Message">
<path class="cls-4" transform="translate(-12.74 -7.67)" d="m440.05 296.6-1.57 7.7a2 2 0 0 0 1.91 2.4l16 0.44a2 2 0 0 0 2-1.67l1.29-7.84a2 2 0 0 0-1.94-2.32l-15.7-0.31a2 2 0 0 0-1.99 1.6z"/>
<polygon class="cls-4" points="443.91 299.45 446.65 300.88 445.4 298.05"/>
</g>
<rect class="cls-7" transform="translate(-3.49 -21.21) rotate(1.74)" x="445.19" y="296.95" width="9.85" height="1.47" rx=".74"/>
<rect class="cls-8" transform="translate(-3.4 -21.2) rotate(1.74)" x="446.09" y="299.92" width="8.05" height="1.47" rx=".74"/>
<rect class="cls-8" transform="translate(-3.31 -21.21) rotate(1.74)" x="447.08" y="302.83" width="6.46" height="1.47" rx=".74"/>
<path class="cls-13" transform="translate(-12.74 -7.67)" d="M459.39,308.55s-.71-.93-1.22-1.66a3,3,0,0,1-.55-1.74c0-.45.06-1,.08-1.54a15.64,15.64,0,0,1,.5-2.88,11,11,0,0,0,.56-3.27l-.37-2a1.94,1.94,0,0,1,1.32,1.73,1.77,1.77,0,0,1,0,.33l-1.3,7.9a2.79,2.79,0,0,1-.16.57Z"/>
<path class="cls-14" transform="translate(-12.74 -7.67)" d="M441.17,306.72a2.79,2.79,0,0,1-1.72-3c.33-2.18,1.24-6.68,1.24-6.68s-.17-1.38,1.93-2.05c0,0-1.65-.23-2.28.9a2.52,2.52,0,0,0-.28.65l-1.62,8a2,2,0,0,0,2.15,2.15Z"/>
<g data-name="Message">
<path class="cls-4" transform="translate(-12.74 -7.67)" d="m44.5 141.72 1.57 7.7a2 2 0 0 1-1.9 2.4l-16 0.44a2 2 0 0 1-2-1.67l-1.29-7.83a2 2 0 0 1 1.93-2.33l15.7-0.31a2 2 0 0 1 1.99 1.6z"/>
<polygon class="cls-4" points="15.16 144.58 12.42 146 13.67 143.17"/>
</g>
<rect class="cls-7" transform="translate(60.46 276.85) rotate(178.26)" x="29.51" y="142.08" width="9.85" height="1.47" rx=".74"/>
<rect class="cls-8" transform="translate(60.55 282.77) rotate(178.26)" x="30.41" y="145.04" width="8.05" height="1.47" rx=".74"/>
<rect class="cls-9" transform="translate(60.26 288.6) rotate(178.26)" x="31.02" y="147.95" width="6.46" height="1.47" rx=".74"/>
<path class="cls-13" transform="translate(-12.74 -7.67)" d="M25.16,153.67s.71-.92,1.23-1.65a3.05,3.05,0,0,0,.55-1.75c0-.45-.06-1-.09-1.53a14.94,14.94,0,0,0-.5-2.89,10.91,10.91,0,0,1-.55-3.27l.37-2a1.94,1.94,0,0,0-1.32,1.74,1.66,1.66,0,0,0,0,.32l1.29,7.9a2.63,2.63,0,0,0,.16.57Z"/>
<path class="cls-14" transform="translate(-12.74 -7.67)" d="M43.38,151.84a2.78,2.78,0,0,0,1.73-3c-.34-2.19-1.25-6.69-1.25-6.69s.17-1.37-1.92-2.05c0,0,1.65-.22,2.28.9a2.27,2.27,0,0,1,.27.65l1.63,8A2,2,0,0,1,44,151.84Z"/>
<g data-name="Message">
<path class="cls-4" transform="translate(-12.74 -7.67)" d="m32.4 119.84 1.58 7.7a2 2 0 0 1-1.91 2.4l-16 0.44a2 2 0 0 1-2-1.67l-1.29-7.83a2 2 0 0 1 1.93-2.33l15.7-0.31a2 2 0 0 1 1.99 1.6z"/>
<polygon class="cls-4" points="3.06 122.7 0.32 124.12 1.57 121.29"/>
</g>
<rect class="cls-7" transform="translate(35.6 233.46) rotate(178.26)" x="17.41" y="120.2" width="9.85" height="1.47" rx=".74"/>
<rect class="cls-7" transform="translate(35.69 239.38) rotate(178.26)" x="18.31" y="123.16" width="8.05" height="1.47" rx=".74"/>
<rect class="cls-8" transform="translate(35.4 245.21) rotate(178.26)" x="18.92" y="126.07" width="6.46" height="1.47" rx=".74"/>
<path class="cls-13" transform="translate(-12.74 -7.67)" d="M13.06,131.79s.71-.92,1.23-1.65a3.05,3.05,0,0,0,.55-1.75c0-.45-.06-1-.09-1.53a14.1,14.1,0,0,0-.5-2.89,11.25,11.25,0,0,1-.55-3.27l.37-2a2,2,0,0,0-1.32,1.74,1.66,1.66,0,0,0,0,.32l1.29,7.9a2.23,2.23,0,0,0,.17.57Z"/>
<path class="cls-14" transform="translate(-12.74 -7.67)" d="M31.28,130A2.78,2.78,0,0,0,33,127c-.34-2.19-1.24-6.69-1.24-6.69s.16-1.37-1.93-2c0,0,1.65-.22,2.28.9a2.52,2.52,0,0,1,.28.65l1.62,8A2,2,0,0,1,31.86,130Z"/>
<g data-name="Message">
<path class="cls-4" transform="translate(-12.74 -7.67)" d="m43.27 96.8 1.58 7.7a2 2 0 0 1-1.91 2.4l-16 0.44a2 2 0 0 1-2-1.67l-1.29-7.83a2 2 0 0 1 1.93-2.33l15.71-0.31a2 2 0 0 1 1.98 1.6z"/>
<polygon class="cls-4" points="13.93 99.66 11.19 101.08 12.44 98.25"/>
</g>
<rect class="cls-7" transform="translate(56.64 187.06) rotate(178.26)" x="28.29" y="97.16" width="9.85" height="1.47" rx=".74"/>
<rect class="cls-8" transform="translate(56.73 192.98) rotate(178.26)" x="29.18" y="100.12" width="8.05" height="1.47" rx=".74"/>
<rect class="cls-8" transform="translate(56.44 198.81) rotate(178.26)" x="29.79" y="103.03" width="6.46" height="1.47" rx=".74"/>
<path class="cls-13" transform="translate(-12.74 -7.67)" d="M23.93,108.75s.71-.92,1.23-1.65a3.05,3.05,0,0,0,.55-1.75c0-.45-.06-1-.08-1.54a14.86,14.86,0,0,0-.51-2.88,11.25,11.25,0,0,1-.55-3.27l.37-2a1.94,1.94,0,0,0-1.32,1.73,1.77,1.77,0,0,0,0,.33l1.3,7.9a2.27,2.27,0,0,0,.16.57Z"/>
<path class="cls-14" transform="translate(-12.74 -7.67)" d="M42.16,106.92a2.78,2.78,0,0,0,1.72-3c-.34-2.19-1.24-6.69-1.24-6.69s.16-1.37-1.93-2.05c0,0,1.65-.22,2.28.9a2.52,2.52,0,0,1,.28.65l1.62,8a2,2,0,0,1-2.16,2.14Z"/>
<g data-name="New no changes">
<path class="cls-15" transform="translate(-12.74 -7.67)" d="M282.92,464.7c-.9,0-1.8,0-2.7-.07a49.55,49.55,0,0,1-32.73-14.07c-9.13-8.78-13.38-20.73-12.62-35.52a45,45,0,0,1,15.54-32.64,46.55,46.55,0,0,1,31.67-11.86c1,0,1.94,0,2.93.08,13.12.67,24.11,5.79,32.63,15.23s12.51,20.89,11.84,34c-.74,14.58-6.13,26-16,33.89A47.82,47.82,0,0,1,282.92,464.7Zm2.83-116.54c-.95,0-1.91,0-2.89-.07-10.94-.56-20.09-4.68-27.21-12.23s-10.42-18.5-9.71-32.45c.86-17,4.3-31.75,10.2-44a113.44,113.44,0,0,1,22.72-31.84,477.45,477.45,0,0,1,36.48-31.38c13.22-10.43,22.9-18.4,28.77-23.71A83.92,83.92,0,0,0,359,154.82a43.72,43.72,0,0,0,6.61-21.23c.77-15.14-4.29-28.4-15-39.39s-25.38-17.12-43.37-18c-2.05-.11-4.07-.16-6-.16-18.11,0-32,4.57-41.38,13.59-10.6,10.22-20.09,25.9-28.18,46.6-7.89,22.1-21.4,33.34-40.11,33.34q-1.22,0-2.46-.06a40.33,40.33,0,0,1-29.27-14c-7.66-8.69-11.29-18.05-10.79-27.8,1-19.27,8.24-38.71,21.56-57.77s32.3-34.6,56.5-46.28c21.27-10.26,45.64-15.47,72.42-15.47,3.66,0,7.42.1,11.18.29,29.07,1.48,54.85,8.26,76.61,20.15s38.61,27.71,49.88,46.92a109.37,109.37,0,0,1,15.34,61.94c-.87,17.23-5.21,32.39-12.9,45.06A139.34,139.34,0,0,1,413,214.76c-9.92,8.77-27.87,23.63-53.34,44.18a206.84,206.84,0,0,0-16.88,15.23,64.23,64.23,0,0,0-9.4,11.9,60.81,60.81,0,0,0-5,11c-1.27,3.75-3.26,10.5-5.93,20.07C317.54,337.68,305.2,348.16,285.75,348.16Z"/>
</g>
<path class="cls-16" transform="translate(-12.74 -7.67)" d="m303.94 344.11s0-0.26 0.05-0.76c0.5-6.57 5.21-54.44 38.68-87.09 25.6-25 53-45.32 65.09-56.78 6.75-6.37 16.42-18.57 20.68-26.18 16-31.7 17.78-52.15-0.22-87.33-18.15-39.48-70-64.23-120.07-67.71 0 0-75.56-10.14-126.14 56.95a96.86 96.86 0 0 0-14.32 24.31c-3.5 8.59-8.95 22.43-16.33 42.52 0 0-8-13 3.8-43.43 4.74-12.25 13.8-31.38 36.18-51.79 14.14-12.9 25.88-23.36 67.49-34.29s84.16 0 84.16 0 33.45 5.29 63.62 28.62c11.72 8.56 38.5 33.78 44.39 71.66 9 41.23-13.81 73.46-13.81 73.46s-12.6 20.51-30.39 33.83c-15.56 13.06-42.66 35.18-42.66 35.18s-22.53 17.8-29.11 28.13-11.82 30.77-11.82 30.77-4.43 17.3-10 22.45-7.77 6.75-9.27 7.48z"/>
<path class="cls-16" transform="translate(-12.74 -7.67)" d="m307 458.2s29.09-46.29 0-81.15c0 0 20.93 10.75 22.51 38.76 0.02 0 3.41 27.66-22.51 42.39z"/>
<path class="cls-17" transform="translate(-12.74 -7.67)" d="m261.05 375.25s-26.63 37.55-3.39 82.95a43.62 43.62 0 0 1-22.45-32.81c-3.43-24.01 10.27-43.05 25.84-50.14z"/>
<path class="cls-17" transform="translate(-12.74 -7.67)" d="M246,311.19s0,18.56,14.12,28.73c12.32-63.2,41.48-99.25,57.54-115.06,2.12-1.91,55.79-39.8,66.37-61.63,3.7-7.63,12.88-35.18,3.56-60.3-13.95-37.57-60.74-46.07-60.75-46.07S213.89,30.62,198.63,169c0,0,14.59-1.21,24.87-16.5.14-.21.29-.42.43-.64a10.91,10.91,0,0,0,.86-1.53l16.37-35s3.06-7.36,12.73-19.31,20.49-15.55,20.49-15.55,29.54-11,58.91,1.69,32.81,41.33,32.37,48.36-.1,12.59-5.27,21.91-7.7,13.82-34.12,35.12-49.22,41.91-49.22,41.91S244.17,261,246,311.19Z"/>
</svg>
