<svg id="Layer_1" data-name="Layer 1" xmlns="http://www.w3.org/2000/svg" xmlns:xlink="http://www.w3.org/1999/xlink" viewBox="0 0 2880 738"><defs><style>.cls-1{fill:url(#linear-gradient);}</style><linearGradient id="linear-gradient" x1="269.53" y1="564.81" x2="2974.19" y2="1574.13" gradientTransform="translate(0.02 -815.86)" gradientUnits="userSpaceOnUse"><stop offset="0" stop-color="#0086d4"/><stop offset="0.2" stop-color="#027dc7"/><stop offset="0.33" stop-color="#0375bb"/><stop offset="0.67" stop-color="#064681"/><stop offset="1" stop-color="#055a97"/></linearGradient></defs><title>Top_background-img</title><path class="cls-1" d="M2880,1.13s-88.65,279.4-361.65,265.28-720.9,49.72-1031.1,249.17c0,0-75.6,30.23-180.45,128.54-94.5,88.42-244,117.8-374.55,73.45-65.85-22.32-128.4-49.44-177.3-72.32-54.45-25.71-102.9-59-143.55-99.16C553.65,489.3,435.45,445.8,312.45,406,89.85,333.36,0,0,0,0H687.3S678.9,262.17,804,366.13c92,76.56,248.1,157.92,284,57.35s66-263,162.9-293.81C1424.55,77.41,1440,.28,1440,.28h450.3s71.85,64.13,299.4,88.43S2592,.28,2592,.28Z"/></svg>