<svg id="Layer_1" data-name="Layer 1" xmlns="http://www.w3.org/2000/svg" viewBox="0 0 1298.07 229"><defs><style>.cls-1{fill:#fff;opacity:0.05;isolation:isolate;}</style></defs><title>Top_background-5p</title><path class="cls-1" d="M1298.07.32s-39.94,86.75-163,82.34S810.15,98.11,670.36,160c0,0-34.06,9.41-81.31,39.89-42.59,27.47-109.92,36.58-168.83,22.83-29.71-6.95-57.87-15.34-79.89-22.48-24.5-7.95-46.4-18.38-64.69-30.79-26-17.66-79.27-31.14-134.77-43.52C40.48,103.48,0,0,0,0H309.81s-3.74,81.4,52.55,113.64c41.46,23.73,111.8,49,128,17.76s29.71-81.63,73.4-91.18C642.07,24.05,649.07.16,649.07.16H852S884.39,20,986.94,27.6,1168.26.16,1168.26.16Z"/></svg>